HIERARCHY
ROOT Hips
{
	OFFSET 0.000000 0.000000 0.000000
	CHANNELS 6 Xposition Yposition Zposition Xrotation Yrotation Zrotation
	JOINT LeftUpLeg_virtual
	{
		OFFSET 0.000000 0.000000 0.000000
		CHANNELS 3 Xrotation Yrotation Zrotation
		JOINT LeftUpLeg
		{
			OFFSET 15.427100 -6.655098 0.678600
			CHANNELS 3 Xrotation Yrotation Zrotation
			JOINT LeftLeg
			{
				OFFSET 4.081073 -39.591068 13.024000
				CHANNELS 3 Xrotation Yrotation Zrotation
				JOINT LeftFoot
				{
					OFFSET -4.081074 -37.707932 -15.979700
					CHANNELS 3 Xrotation Yrotation Zrotation
					JOINT LeftToeBase
					{
						OFFSET 5.346399 -15.068900 20.645000
						CHANNELS 3 Xrotation Yrotation Zrotation
						JOINT LeftToe_End
						{
							OFFSET 2.754700 0.931300 11.300900
							CHANNELS 3 Xrotation Yrotation Zrotation
							End Site
							{
								OFFSET 0 0 0
							}
						}
					}
				}
			}
		}
	}
	JOINT RightUpLeg_virtual
	{
		OFFSET 0.000000 0.000000 0.000000
		CHANNELS 3 Xrotation Yrotation Zrotation
		JOINT RightUpLeg
		{
			OFFSET -15.569500 -6.655098 0.678600
			CHANNELS 3 Xrotation Yrotation Zrotation
			JOINT RightLeg
			{
				OFFSET -4.081825 -39.591045 13.023800
				CHANNELS 3 Xrotation Yrotation Zrotation
				JOINT RightFoot
				{
					OFFSET 4.081824 -37.707954 -15.979600
					CHANNELS 3 Xrotation Yrotation Zrotation
					JOINT RightToeBase
					{
						OFFSET -5.346400 -15.068900 20.645000
						CHANNELS 3 Xrotation Yrotation Zrotation
						JOINT RightToe_End
						{
							OFFSET -2.754700 0.931300 11.300900
							CHANNELS 3 Xrotation Yrotation Zrotation
							End Site
							{
								OFFSET 0 0 0
							}
						}
					}
				}
			}
		}
	}
	JOINT Spine_virtual
	{
		OFFSET 0.000000 0.000000 0.000000
		CHANNELS 3 Xrotation Yrotation Zrotation
		JOINT Spine
		{
			OFFSET -0.279200 12.230698 -2.892100
			CHANNELS 3 Xrotation Yrotation Zrotation
			JOINT Spine1
			{
				OFFSET -0.232667 10.192268 -1.242267
				CHANNELS 3 Xrotation Yrotation Zrotation
				JOINT Spine1_split
				{
					OFFSET -0.232667 10.192268 -1.242267
					CHANNELS 3 Xrotation Yrotation Zrotation
					JOINT Spine2
					{
						OFFSET -0.232667 10.192268 -1.242267
						CHANNELS 3 Xrotation Yrotation Zrotation
						JOINT Neck_virtual
						{
							OFFSET 0.000000 0.000000 0.000000
							CHANNELS 3 Xrotation Yrotation Zrotation
							JOINT Neck
							{
								OFFSET -0.418800 17.814194 8.416900
								CHANNELS 3 Xrotation Yrotation Zrotation
								JOINT Head
								{
									OFFSET 0.000000 7.031097 3.806800
									CHANNELS 3 Xrotation Yrotation Zrotation
									JOINT HeadTop_End
									{
										OFFSET 0.000000 24.646606 12.978600
										CHANNELS 3 Xrotation Yrotation Zrotation
										End Site
										{
											OFFSET 0 0 0
										}
									}
								}
							}
						}
						JOINT LeftShoulder_virtual
						{
							OFFSET 0.000000 0.000000 0.000000
							CHANNELS 3 Xrotation Yrotation Zrotation
							JOINT LeftShoulder
							{
								OFFSET 8.476499 7.247704 -3.868750
								CHANNELS 3 Xrotation Yrotation Zrotation
								JOINT LeftShoulder_split
								{
									OFFSET 8.476499 7.247704 -3.868750
									CHANNELS 3 Xrotation Yrotation Zrotation
									JOINT LeftArm
									{
										OFFSET 9.308998 -2.777710 0.208600
										CHANNELS 3 Xrotation Yrotation Zrotation
										JOINT LeftForeArm
										{
											OFFSET 29.972298 0.000000 0.000000
											CHANNELS 3 Xrotation Yrotation Zrotation
											JOINT LeftHand
											{
												OFFSET 26.026505 0.000000 0.000000
												CHANNELS 3 Xrotation Yrotation Zrotation
												End Site
												{
													OFFSET 0 0 0
												}
											}
										}
									}
								}
							}
						}
						JOINT RightShoulder_virtual
						{
							OFFSET 0.000000 0.000000 0.000000
							CHANNELS 3 Xrotation Yrotation Zrotation
							JOINT RightShoulder
							{
								OFFSET -7.570500 7.247704 -3.868750
								CHANNELS 3 Xrotation Yrotation Zrotation
								JOINT RightShoulder_split
								{
									OFFSET -7.570500 7.247704 -3.868750
									CHANNELS 3 Xrotation Yrotation Zrotation
									JOINT RightArm
									{
										OFFSET -9.308998 -2.777710 0.208500
										CHANNELS 3 Xrotation Yrotation Zrotation
										JOINT RightForeArm
										{
											OFFSET -29.972300 0.000000 0.000000
											CHANNELS 3 Xrotation Yrotation Zrotation
											JOINT RightHand
											{
												OFFSET -26.026505 0.000000 0.000000
												CHANNELS 3 Xrotation Yrotation Zrotation
												End Site
												{
													OFFSET 0 0 0
												}
											}
										}
									}
								}
							}
						}
					}
				}
			}
		}
	}
}
MOTION
Frames: 7
Frame Time: 0.03333333
9.407488 86.216560 106.512878 0.000000 0.000000 0.000000 16.870422 34.972611 -5.580172 -32.286963 15.840906 8.464809 33.937277 0.588472 -2.278417 -7.617842 32.859688 -0.477391 -4.570108 -3.528671 -3.805588 0.000000 0.000000 0.000000 17.801643 35.277787 -6.249939 -38.621100 -5.888015 -4.068457 32.125621 -3.020828 -3.071992 -4.677579 -12.636544 8.073074 5.823204 4.761813 -0.793375 0.000000 0.000000 0.000000 16.451894 35.925210 -6.054868 11.163693 -6.617585 2.168612 6.279794 -2.178707 1.019369 0.052770 0.383786 -0.032325 0.000000 0.000000 0.000000 8.179931 -0.146851 0.369901 -14.432026 1.300996 1.175646 -24.197436 3.367066 6.734601 0.000000 0.000000 0.000000 6.357101 -1.457818 -0.614921 4.758177 -4.783262 -7.845689 2.144793 -7.654031 3.906829 -35.135641 -13.730693 -34.232536 1.955027 -17.168920 1.317285 0.000000 0.000000 0.000000 9.488579 -0.326087 0.708856 -1.546258 2.866231 2.594440 6.227229 7.248782 -0.852893 -18.710940 -17.105415 49.658006 -6.017803 54.095570 2.094688 0.000000 0.000000 0.000000 
9.584475 88.849312 108.805603 0.000000 0.000000 0.000000 17.729884 36.290851 -5.817555 -34.902065 16.410363 5.370277 29.447350 0.083995 -0.264342 -2.728499 31.467966 -4.449070 -1.477208 -3.155756 -2.023833 0.000000 0.000000 0.000000 18.114739 36.836248 -6.323324 -34.322291 -7.460460 -4.187157 28.532361 -1.861515 -2.999172 -4.935069 -13.117083 8.650553 2.477780 4.807732 0.600088 0.000000 0.000000 0.000000 16.753571 36.774992 -6.151932 10.265298 -5.860903 1.919777 6.314057 -1.779064 0.835359 -0.017703 0.422073 -0.025066 0.000000 0.000000 0.000000 7.789777 0.289896 0.269046 -13.182130 1.648091 0.307088 -20.502210 -3.393209 5.066459 0.000000 0.000000 0.000000 6.322789 -0.985385 -0.874709 5.001041 -3.115277 -7.670074 2.362442 -7.973154 4.217953 -32.936043 -13.601330 -35.391810 1.915880 -16.268780 1.364960 0.000000 0.000000 0.000000 9.437989 0.124460 0.470670 -1.766361 3.938946 3.621904 6.746844 7.540887 -0.599978 -20.414991 -18.627567 49.011139 -9.483269 57.517781 5.572183 0.000000 0.000000 0.000000 
9.962379 90.260315 111.412247 0.000000 0.000000 0.000000 18.082272 37.299229 -5.851097 -37.699342 17.044539 3.189237 26.973870 -0.223517 1.682393 2.293301 30.030149 -7.890998 -0.586479 -2.768637 -0.563537 0.000000 0.000000 0.000000 18.468471 38.148717 -6.327311 -30.209992 -8.850907 -4.018556 27.053717 -0.765221 -2.926106 -7.881568 -13.838607 8.669220 1.084462 4.933800 1.304269 0.000000 0.000000 0.000000 16.791125 37.672588 -6.109959 9.346638 -5.103387 1.580920 6.228818 -1.379701 0.527996 -0.060420 0.443367 -0.041290 0.000000 0.000000 0.000000 7.225317 0.692315 0.078857 -11.947757 1.941674 -0.770053 -16.300952 -10.298609 3.978014 0.000000 0.000000 0.000000 6.266582 -0.540450 -1.193073 5.237711 -1.298647 -7.167070 2.349794 -7.898059 4.054876 -31.014318 -12.803762 -35.941251 1.738977 -17.207234 1.419166 0.000000 0.000000 0.000000 9.297156 0.526823 0.117651 -1.987891 5.010163 4.513045 7.105906 7.879138 -0.428287 -21.347422 -19.143460 48.929460 -13.844083 61.194752 9.945328 0.000000 0.000000 0.000000 
10.508941 90.210686 114.414856 0.000000 0.000000 0.000000 17.840999 37.862197 -5.665689 -40.714129 18.082038 2.000261 26.613470 -0.243163 3.483868 5.424227 28.745012 -9.477176 -0.295752 -2.425824 0.645399 0.000000 0.000000 0.000000 18.444888 38.929671 -6.157334 -26.618292 -10.371880 -3.623976 27.868794 -0.059948 -2.769560 -13.368904 -14.974715 7.565595 2.362004 5.259461 1.149116 0.000000 0.000000 0.000000 16.554756 38.683565 -5.999750 8.482551 -4.335519 1.086466 6.033591 -0.959485 0.128915 -0.065767 0.455731 -0.046601 0.000000 0.000000 0.000000 6.625174 1.093790 -0.183086 -10.933735 1.990805 -1.827376 -12.064601 -17.305787 3.687539 0.000000 0.000000 0.000000 6.157541 -0.098918 -1.519813 5.455909 0.530784 -6.307777 2.134742 -7.441879 3.589208 -29.464917 -11.431430 -35.755695 1.396842 -19.968360 1.448444 0.000000 0.000000 0.000000 9.064472 0.910330 -0.310354 -2.181178 5.980496 5.160076 7.458493 8.070080 -0.379051 -21.630726 -18.641806 49.598607 -18.831904 64.486896 14.946703 0.000000 0.000000 0.000000 
11.172395 88.906281 117.684219 0.000000 0.000000 0.000000 17.081878 37.952148 -5.268009 -43.816268 19.368338 1.770934 27.563961 -0.466629 4.851277 6.220015 27.297288 -9.469195 -0.777140 -2.170616 2.240104 0.000000 0.000000 0.000000 17.989164 39.275217 -5.833572 -23.792925 -11.942992 -3.241587 30.255033 0.878269 -2.520052 -19.470417 -16.044990 7.144244 3.631220 5.656089 0.164154 0.000000 0.000000 0.000000 16.090648 39.745663 -5.852015 7.732753 -3.544280 0.382078 5.750016 -0.532669 -0.302192 -0.022924 0.441155 -0.058411 0.000000 0.000000 0.000000 6.122149 1.525447 -0.467275 -10.311075 1.740455 -2.627144 -8.436710 -23.996811 4.036022 0.000000 0.000000 0.000000 5.952354 0.374865 -1.803027 5.609881 2.160598 -5.169349 1.912738 -6.696087 2.905642 -28.454278 -9.949512 -34.965405 0.904164 -24.238639 1.435672 0.000000 0.000000 0.000000 8.740850 1.287367 -0.757639 -2.331721 6.764296 5.472840 7.688538 7.781059 -0.210610 -21.521981 -17.443641 50.938243 -23.810017 66.978037 19.923745 0.000000 0.000000 0.000000 
11.984659 86.962059 121.184067 0.000000 0.000000 0.000000 15.986476 37.729022 -4.793209 -46.678882 20.653111 2.473572 29.160909 -1.210983 5.617549 5.646272 25.455038 -8.551194 -1.989231 -2.105194 4.490656 0.000000 0.000000 0.000000 17.254637 39.481167 -5.478041 -21.488853 -13.521286 -2.918984 33.342204 2.338305 -2.303160 -24.359516 -16.970790 8.440108 2.958250 6.051756 -1.413610 0.000000 0.000000 0.000000 15.495549 40.934529 -5.772396 7.064793 -2.744066 -0.518840 5.404741 -0.119439 -0.689795 0.032744 0.301674 -0.085763 0.000000 0.000000 0.000000 5.768654 1.979064 -0.729149 -10.082928 1.206063 -3.077817 -6.017873 -30.098192 4.505322 0.000000 0.000000 0.000000 5.618285 0.887741 -1.993042 5.693830 3.362433 -3.944436 1.801985 -5.842904 2.220738 -27.916443 -8.753677 -33.688945 0.334576 -29.614324 1.410382 0.000000 0.000000 0.000000 8.319710 1.661044 -1.160957 -2.407898 7.207240 5.433897 7.881539 7.077042 -0.003995 -21.426321 -15.983568 52.734163 -28.101142 68.751079 24.185232 0.000000 0.000000 0.000000 
12.995605 85.002243 124.898712 0.000000 0.000000 0.000000 14.901974 37.665044 -4.601904 -49.517635 21.439508 3.865791 31.349680 -2.515929 5.627977 5.676182 23.229451 -7.956657 -2.851333 -2.119526 6.535281 0.000000 0.000000 0.000000 16.362333 39.557761 -5.344143 -19.255487 -15.148407 -2.452017 35.821535 4.093073 -2.175400 -27.524978 -17.683116 10.601580 1.244326 6.445353 -3.140428 0.000000 0.000000 0.000000 14.790689 42.222730 -5.868181 6.394354 -2.000198 -1.532594 4.983467 0.226381 -0.963507 0.072249 0.162929 -0.087168 0.000000 0.000000 0.000000 5.532463 2.429720 -0.927175 -10.135648 0.473822 -3.218427 -5.191199 -35.278590 4.449931 0.000000 0.000000 0.000000 5.146489 1.399302 -2.060533 5.683986 4.018292 -2.937102 1.991192 -5.196564 1.944694 -27.746967 -8.151170 -32.178596 -0.130119 -35.512107 1.440671 0.000000 0.000000 0.000000 7.826750 2.016258 -1.463124 -2.406409 7.208152 5.071337 8.102567 6.230311 0.192321 -21.433970 -14.594767 54.707616 -31.154265 69.987050 27.173496 0.000000 0.000000 0.000000 
